<?xml version="1.0" encoding="UTF-8" standalone="no"?>
<!DOCTYPE svg PUBLIC "-//W3C//DTD SVG 1.1//EN" "http://www.w3.org/Graphics/SVG/1.1/DTD/svg11.dtd">
<svg width="100%" height="100%" viewBox="0 0 677 145" version="1.1" xmlns="http://www.w3.org/2000/svg" xmlns:xlink="http://www.w3.org/1999/xlink" xml:space="preserve" xmlns:serif="http://www.serif.com/" style="fill-rule:evenodd;clip-rule:evenodd;stroke-miterlimit:10;">
    <g transform="matrix(1,0,0,1,-47.3631,-227.239)">
        <g id="logo" transform="matrix(0.297052,0,0,0.297052,-228.687,-301.412)">
            <g transform="matrix(27.249,-1.20813e-06,1.19896e-06,27.4575,4026.87,-14871.9)">
                <path d="M-108.657,611.546C-108.657,611.865 -108.718,612.14 -108.842,612.368C-108.965,612.597 -109.13,612.784 -109.338,612.929C-109.545,613.073 -109.782,613.18 -110.046,613.249C-110.311,613.319 -110.588,613.353 -110.876,613.353C-111.219,613.353 -111.553,613.312 -111.878,613.23C-112.203,613.148 -112.492,613.016 -112.744,612.833C-112.997,612.651 -113.2,612.413 -113.354,612.122C-113.507,611.83 -113.581,611.473 -113.575,611.052L-113.169,611.052C-113.169,611.413 -113.108,611.719 -112.988,611.968C-112.868,612.218 -112.702,612.421 -112.492,612.577C-112.281,612.734 -112.035,612.848 -111.752,612.92C-111.469,612.992 -111.168,613.029 -110.849,613.029C-110.621,613.029 -110.398,613.001 -110.182,612.947C-109.965,612.893 -109.774,612.807 -109.609,612.69C-109.443,612.572 -109.311,612.422 -109.212,612.238C-109.112,612.054 -109.063,611.833 -109.063,611.574C-109.063,611.278 -109.127,611.042 -109.257,610.864C-109.386,610.687 -109.553,610.546 -109.758,610.444C-109.962,610.342 -110.192,610.26 -110.448,610.2C-110.704,610.14 -110.958,610.08 -111.21,610.019C-111.469,609.959 -111.728,609.894 -111.986,609.825C-112.245,609.756 -112.477,609.659 -112.681,609.536C-112.886,609.412 -113.053,609.253 -113.182,609.057C-113.311,608.861 -113.376,608.604 -113.376,608.284C-113.376,607.959 -113.308,607.685 -113.173,607.462C-113.038,607.239 -112.863,607.06 -112.65,606.924C-112.436,606.789 -112.195,606.692 -111.928,606.635C-111.66,606.578 -111.391,606.549 -111.12,606.549C-110.801,606.549 -110.503,606.584 -110.227,606.655C-109.95,606.725 -109.708,606.838 -109.5,606.993C-109.293,607.148 -109.127,607.352 -109.004,607.605C-108.881,607.858 -108.81,608.168 -108.792,608.535L-109.18,608.535C-109.192,608.228 -109.249,607.969 -109.351,607.759C-109.454,607.548 -109.591,607.378 -109.762,607.249C-109.933,607.119 -110.135,607.025 -110.367,606.964C-110.598,606.904 -110.849,606.874 -111.12,606.874C-111.331,606.874 -111.544,606.895 -111.761,606.937C-111.977,606.98 -112.176,607.053 -112.356,607.159C-112.537,607.264 -112.684,607.404 -112.799,607.579C-112.913,607.754 -112.97,607.974 -112.97,608.239C-112.97,608.51 -112.907,608.727 -112.781,608.889C-112.655,609.052 -112.49,609.183 -112.286,609.282C-112.082,609.382 -111.85,609.463 -111.592,609.526C-111.334,609.59 -111.07,609.654 -110.8,609.721C-110.512,609.793 -110.237,609.867 -109.976,609.942C-109.715,610.017 -109.487,610.118 -109.291,610.245C-109.096,610.371 -108.942,610.537 -108.828,610.742C-108.714,610.947 -108.657,611.215 -108.657,611.546Z" style="fill:#000000;"/>
                <path d="M-100.85,610.673C-100.899,611.064 -100.993,611.422 -101.135,611.747C-101.276,612.072 -101.464,612.355 -101.699,612.595C-101.933,612.836 -102.213,613.023 -102.538,613.155C-102.863,613.287 -103.227,613.353 -103.63,613.353C-104.105,613.353 -104.526,613.262 -104.893,613.078C-105.26,612.895 -105.57,612.648 -105.823,612.338C-106.075,612.028 -106.266,611.672 -106.396,611.269C-106.525,610.866 -106.59,610.442 -106.59,609.996C-106.59,609.533 -106.524,609.094 -106.391,608.679C-106.259,608.264 -106.063,607.898 -105.805,607.583C-105.546,607.267 -105.227,607.016 -104.848,606.829C-104.469,606.643 -104.03,606.549 -103.531,606.549C-103.224,606.549 -102.915,606.599 -102.606,606.698C-102.296,606.797 -102.015,606.94 -101.762,607.127C-101.509,607.313 -101.299,607.539 -101.13,607.804C-100.962,608.068 -100.869,608.366 -100.85,608.697L-101.248,608.697C-101.278,608.42 -101.365,608.171 -101.509,607.948C-101.654,607.725 -101.833,607.537 -102.046,607.384C-102.26,607.231 -102.496,607.113 -102.755,607.032C-103.013,606.951 -103.272,606.91 -103.531,606.91C-103.964,606.91 -104.346,606.996 -104.677,607.167C-105.008,607.339 -105.284,607.569 -105.507,607.858C-105.729,608.147 -105.898,608.476 -106.012,608.846C-106.127,609.216 -106.184,609.599 -106.184,609.996C-106.184,610.375 -106.13,610.745 -106.021,611.106C-105.913,611.467 -105.751,611.788 -105.534,612.067C-105.317,612.347 -105.051,612.571 -104.735,612.74C-104.419,612.908 -104.054,612.992 -103.639,612.992C-103.284,612.992 -102.968,612.934 -102.691,612.816C-102.415,612.699 -102.177,612.538 -101.978,612.334C-101.78,612.129 -101.621,611.885 -101.5,611.603C-101.38,611.32 -101.296,611.01 -101.248,610.673L-100.85,610.673Z" style="fill:#000000;"/>
                <rect x="-98.486" y="606.703" width="0.406" height="6.497" style="fill:#000000;"/>
                <path d="M-95.605,613.2L-95.605,606.703L-91.923,606.703L-91.923,607.064L-95.199,607.064L-95.199,609.78L-92.176,609.78L-92.176,610.123L-95.199,610.123L-95.199,612.839L-91.878,612.839L-91.878,613.2L-95.605,613.2Z" style="fill:#000000;"/>
                <path d="M-86.202,613.2L-86.202,608.586C-86.202,608.328 -86.226,608.095 -86.274,607.888C-86.322,607.681 -86.4,607.505 -86.509,607.361C-86.617,607.217 -86.761,607.106 -86.942,607.027C-87.122,606.949 -87.348,606.91 -87.619,606.91C-87.889,606.91 -88.115,606.949 -88.295,607.027C-88.476,607.106 -88.622,607.217 -88.733,607.361C-88.844,607.505 -88.923,607.681 -88.968,607.888C-89.013,608.095 -89.035,608.328 -89.035,608.586L-89.035,613.2L-89.441,613.2L-89.441,608.381C-89.441,607.786 -89.288,607.331 -88.981,607.019C-88.674,606.706 -88.22,606.549 -87.619,606.549C-87.017,606.549 -86.563,606.707 -86.256,607.023C-85.949,607.339 -85.796,607.792 -85.796,608.381L-85.796,613.2L-86.202,613.2Z" style="fill:#000000;"/>
                <path d="M-77.735,610.673C-77.783,611.064 -77.878,611.422 -78.02,611.747C-78.161,612.072 -78.349,612.355 -78.584,612.595C-78.818,612.836 -79.098,613.023 -79.423,613.155C-79.748,613.287 -80.112,613.353 -80.515,613.353C-80.99,613.353 -81.411,613.262 -81.778,613.078C-82.145,612.895 -82.455,612.648 -82.708,612.338C-82.96,612.028 -83.151,611.672 -83.281,611.269C-83.41,610.866 -83.475,610.442 -83.475,609.996C-83.475,609.533 -83.408,609.094 -83.276,608.679C-83.144,608.264 -82.948,607.898 -82.689,607.583C-82.431,607.267 -82.112,607.016 -81.733,606.829C-81.354,606.643 -80.915,606.549 -80.415,606.549C-80.109,606.549 -79.8,606.599 -79.49,606.698C-79.181,606.797 -78.899,606.94 -78.647,607.127C-78.394,607.313 -78.183,607.539 -78.015,607.804C-77.847,608.068 -77.753,608.366 -77.735,608.697L-78.132,608.697C-78.162,608.42 -78.25,608.171 -78.394,607.948C-78.538,607.725 -78.717,607.537 -78.931,607.384C-79.145,607.231 -79.381,607.113 -79.639,607.032C-79.898,606.951 -80.157,606.91 -80.415,606.91C-80.849,606.91 -81.231,606.996 -81.561,607.167C-81.892,607.339 -82.169,607.569 -82.392,607.858C-82.614,608.147 -82.783,608.476 -82.897,608.846C-83.011,609.216 -83.068,609.599 -83.068,609.996C-83.068,610.375 -83.014,610.745 -82.906,611.106C-82.798,611.467 -82.635,611.788 -82.419,612.067C-82.202,612.347 -81.936,612.571 -81.62,612.74C-81.304,612.908 -80.939,612.992 -80.524,612.992C-80.169,612.992 -79.853,612.934 -79.576,612.816C-79.299,612.699 -79.062,612.538 -78.863,612.334C-78.665,612.129 -78.505,611.885 -78.385,611.603C-78.265,611.32 -78.18,611.01 -78.132,610.673L-77.735,610.673Z" style="fill:#000000;"/>
                <path d="M-75.371,613.2L-75.371,606.703L-71.689,606.703L-71.689,607.064L-74.965,607.064L-74.965,609.78L-71.942,609.78L-71.942,610.123L-74.965,610.123L-74.965,612.839L-71.644,612.839L-71.644,613.2L-75.371,613.2Z" style="fill:#000000;"/>
                <path d="M-60.981,611.546C-60.981,611.865 -61.042,612.14 -61.166,612.368C-61.289,612.597 -61.455,612.784 -61.662,612.929C-61.87,613.073 -62.106,613.18 -62.37,613.249C-62.635,613.319 -62.912,613.353 -63.201,613.353C-63.544,613.353 -63.877,613.312 -64.202,613.23C-64.527,613.148 -64.816,613.016 -65.069,612.833C-65.321,612.651 -65.524,612.413 -65.678,612.122C-65.831,611.83 -65.905,611.473 -65.899,611.052L-65.493,611.052C-65.493,611.413 -65.433,611.719 -65.312,611.968C-65.192,612.218 -65.027,612.421 -64.816,612.577C-64.605,612.734 -64.359,612.848 -64.076,612.92C-63.793,612.992 -63.492,613.029 -63.174,613.029C-62.945,613.029 -62.722,613.001 -62.506,612.947C-62.289,612.893 -62.098,612.807 -61.933,612.69C-61.767,612.572 -61.635,612.422 -61.536,612.238C-61.436,612.054 -61.387,611.833 -61.387,611.574C-61.387,611.278 -61.452,611.042 -61.581,610.864C-61.71,610.687 -61.877,610.546 -62.082,610.444C-62.286,610.342 -62.516,610.26 -62.772,610.2C-63.028,610.14 -63.282,610.08 -63.535,610.019C-63.793,609.959 -64.052,609.894 -64.311,609.825C-64.569,609.756 -64.801,609.659 -65.005,609.536C-65.21,609.412 -65.377,609.253 -65.506,609.057C-65.636,608.861 -65.7,608.604 -65.7,608.284C-65.7,607.959 -65.633,607.685 -65.497,607.462C-65.362,607.239 -65.187,607.06 -64.974,606.924C-64.76,606.789 -64.52,606.692 -64.252,606.635C-63.984,606.578 -63.715,606.549 -63.444,606.549C-63.125,606.549 -62.828,606.584 -62.551,606.655C-62.274,606.725 -62.032,606.838 -61.825,606.993C-61.617,607.148 -61.452,607.352 -61.328,607.605C-61.205,607.858 -61.134,608.168 -61.116,608.535L-61.504,608.535C-61.516,608.228 -61.573,607.969 -61.676,607.759C-61.778,607.548 -61.915,607.378 -62.086,607.249C-62.258,607.119 -62.459,607.025 -62.691,606.964C-62.922,606.904 -63.174,606.874 -63.444,606.874C-63.655,606.874 -63.868,606.895 -64.085,606.937C-64.302,606.98 -64.5,607.053 -64.681,607.159C-64.861,607.264 -65.008,607.404 -65.123,607.579C-65.237,607.754 -65.294,607.974 -65.294,608.239C-65.294,608.51 -65.231,608.727 -65.105,608.889C-64.979,609.052 -64.814,609.183 -64.61,609.282C-64.406,609.382 -64.175,609.463 -63.916,609.526C-63.658,609.59 -63.394,609.654 -63.124,609.721C-62.836,609.793 -62.561,609.867 -62.3,609.942C-62.039,610.017 -61.811,610.118 -61.616,610.245C-61.421,610.371 -61.266,610.537 -61.152,610.742C-61.038,610.947 -60.981,611.215 -60.981,611.546Z" style="fill:#000000;"/>
                <path d="M-55.386,613.2L-55.386,610.105L-58.354,610.105L-58.354,613.2L-58.761,613.2L-58.761,606.703L-58.354,606.703L-58.354,609.744L-55.395,609.744L-55.395,606.703L-54.979,606.703L-54.979,613.2L-55.386,613.2Z" style="fill:#000000;"/>
                <path d="M-49.222,608.584C-49.222,608.326 -49.246,608.093 -49.294,607.886C-49.342,607.679 -49.42,607.504 -49.529,607.36C-49.637,607.216 -49.781,607.105 -49.962,607.027C-50.142,606.949 -50.368,606.91 -50.639,606.91C-50.909,606.91 -51.135,606.949 -51.315,607.027C-51.496,607.105 -51.642,607.216 -51.753,607.36C-51.864,607.504 -51.943,607.679 -51.988,607.886C-52.033,608.093 -52.055,608.326 -52.055,608.584L-52.055,609.78L-49.222,609.78L-49.222,608.584ZM-49.222,613.2L-49.222,610.123L-52.055,610.123L-52.055,613.2L-52.461,613.2L-52.461,608.381C-52.461,607.786 -52.308,607.331 -52.001,607.019C-51.694,606.706 -51.24,606.549 -50.639,606.549C-50.037,606.549 -49.583,606.707 -49.276,607.023C-48.969,607.339 -48.816,607.792 -48.816,608.381L-48.816,613.2L-49.222,613.2Z" style="fill:#000000;"/>
                <path d="M-42.93,608.521C-42.93,608.041 -43.071,607.678 -43.354,607.433C-43.637,607.187 -44.052,607.064 -44.6,607.064L-45.935,607.064L-45.935,609.978L-44.618,609.978C-44.383,609.978 -44.162,609.947 -43.954,609.884C-43.747,609.821 -43.568,609.728 -43.417,609.605C-43.267,609.482 -43.148,609.331 -43.061,609.151C-42.974,608.971 -42.93,608.761 -42.93,608.521ZM-42.524,608.517C-42.524,608.817 -42.577,609.081 -42.682,609.306C-42.788,609.532 -42.934,609.721 -43.121,609.875C-43.308,610.028 -43.531,610.144 -43.791,610.222C-44.05,610.3 -44.334,610.339 -44.641,610.339L-45.935,610.339L-45.935,613.2L-46.341,613.2L-46.341,606.703L-44.541,606.703C-43.89,606.703 -43.391,606.862 -43.044,607.181C-42.697,607.5 -42.524,607.945 -42.524,608.517Z" style="fill:#000000;"/>
                <path d="M-40.212,613.2L-40.212,606.703L-36.53,606.703L-36.53,607.064L-39.806,607.064L-39.806,609.78L-36.783,609.78L-36.783,610.123L-39.806,610.123L-39.806,612.839L-36.485,612.839L-36.485,613.2L-40.212,613.2Z" style="fill:#000000;"/>
                <path d="M-30.556,609.951C-30.556,609.536 -30.602,609.153 -30.696,608.801C-30.789,608.449 -30.935,608.145 -31.133,607.889C-31.332,607.634 -31.589,607.432 -31.905,607.285C-32.221,607.137 -32.598,607.064 -33.037,607.064L-33.642,607.064L-33.642,612.839L-33.182,612.839C-32.749,612.839 -32.37,612.765 -32.045,612.618C-31.72,612.471 -31.446,612.268 -31.224,612.009C-31.001,611.75 -30.834,611.445 -30.723,611.093C-30.611,610.741 -30.556,610.36 -30.556,609.951ZM-30.15,609.951C-30.15,610.433 -30.216,610.872 -30.348,611.269C-30.481,611.666 -30.676,612.007 -30.935,612.293C-31.194,612.579 -31.514,612.801 -31.896,612.961C-32.278,613.12 -32.716,613.2 -33.209,613.2L-34.048,613.2L-34.048,606.703L-32.92,606.703C-32.433,606.703 -32.015,606.788 -31.666,606.96C-31.317,607.131 -31.03,607.363 -30.804,607.655C-30.578,607.947 -30.413,608.289 -30.308,608.683C-30.202,609.078 -30.15,609.5 -30.15,609.951Z" style="fill:#000000;"/>
                <path d="M-108.657,611.546C-108.657,611.865 -108.718,612.14 -108.842,612.368C-108.965,612.597 -109.13,612.784 -109.338,612.929C-109.545,613.073 -109.782,613.18 -110.046,613.249C-110.311,613.319 -110.588,613.353 -110.876,613.353C-111.219,613.353 -111.553,613.312 -111.878,613.23C-112.203,613.148 -112.492,613.016 -112.744,612.833C-112.997,612.651 -113.2,612.413 -113.354,612.122C-113.507,611.83 -113.581,611.473 -113.575,611.052L-113.169,611.052C-113.169,611.413 -113.108,611.719 -112.988,611.968C-112.868,612.218 -112.702,612.421 -112.492,612.577C-112.281,612.734 -112.035,612.848 -111.752,612.92C-111.469,612.992 -111.168,613.029 -110.849,613.029C-110.621,613.029 -110.398,613.001 -110.182,612.947C-109.965,612.893 -109.774,612.807 -109.609,612.69C-109.443,612.572 -109.311,612.422 -109.212,612.238C-109.112,612.054 -109.063,611.833 -109.063,611.574C-109.063,611.278 -109.127,611.042 -109.257,610.864C-109.386,610.687 -109.553,610.546 -109.758,610.444C-109.962,610.342 -110.192,610.26 -110.448,610.2C-110.704,610.14 -110.958,610.08 -111.21,610.019C-111.469,609.959 -111.728,609.894 -111.986,609.825C-112.245,609.756 -112.477,609.659 -112.681,609.536C-112.886,609.412 -113.053,609.253 -113.182,609.057C-113.311,608.861 -113.376,608.604 -113.376,608.284C-113.376,607.959 -113.308,607.685 -113.173,607.462C-113.038,607.239 -112.863,607.06 -112.65,606.924C-112.436,606.789 -112.195,606.692 -111.928,606.635C-111.66,606.578 -111.391,606.549 -111.12,606.549C-110.801,606.549 -110.503,606.584 -110.227,606.655C-109.95,606.725 -109.708,606.838 -109.5,606.993C-109.293,607.148 -109.127,607.352 -109.004,607.605C-108.881,607.858 -108.81,608.168 -108.792,608.535L-109.18,608.535C-109.192,608.228 -109.249,607.969 -109.351,607.759C-109.454,607.548 -109.591,607.378 -109.762,607.249C-109.933,607.119 -110.135,607.025 -110.367,606.964C-110.598,606.904 -110.849,606.874 -111.12,606.874C-111.331,606.874 -111.544,606.895 -111.761,606.937C-111.977,606.98 -112.176,607.053 -112.356,607.159C-112.537,607.264 -112.684,607.404 -112.799,607.579C-112.913,607.754 -112.97,607.974 -112.97,608.239C-112.97,608.51 -112.907,608.727 -112.781,608.889C-112.655,609.052 -112.49,609.183 -112.286,609.282C-112.082,609.382 -111.85,609.463 -111.592,609.526C-111.334,609.59 -111.07,609.654 -110.8,609.721C-110.512,609.793 -110.237,609.867 -109.976,609.942C-109.715,610.017 -109.487,610.118 -109.291,610.245C-109.096,610.371 -108.942,610.537 -108.828,610.742C-108.714,610.947 -108.657,611.215 -108.657,611.546Z" style="fill:#000000;fill-rule:nonzero;stroke:rgb(128,128,128);stroke-width:0.02px;"/>
                <path d="M-100.85,610.673C-100.899,611.064 -100.993,611.422 -101.135,611.747C-101.276,612.072 -101.464,612.355 -101.699,612.595C-101.933,612.836 -102.213,613.023 -102.538,613.155C-102.863,613.287 -103.227,613.353 -103.63,613.353C-104.105,613.353 -104.526,613.262 -104.893,613.078C-105.26,612.895 -105.57,612.648 -105.823,612.338C-106.075,612.028 -106.266,611.672 -106.396,611.269C-106.525,610.866 -106.59,610.442 -106.59,609.996C-106.59,609.533 -106.524,609.094 -106.391,608.679C-106.259,608.264 -106.063,607.898 -105.805,607.583C-105.546,607.267 -105.227,607.016 -104.848,606.829C-104.469,606.643 -104.03,606.549 -103.531,606.549C-103.224,606.549 -102.915,606.599 -102.606,606.698C-102.296,606.797 -102.015,606.94 -101.762,607.127C-101.509,607.313 -101.299,607.539 -101.13,607.804C-100.962,608.068 -100.869,608.366 -100.85,608.697L-101.248,608.697C-101.278,608.42 -101.365,608.171 -101.509,607.948C-101.654,607.725 -101.833,607.537 -102.046,607.384C-102.26,607.231 -102.496,607.113 -102.755,607.032C-103.013,606.951 -103.272,606.91 -103.531,606.91C-103.964,606.91 -104.346,606.996 -104.677,607.167C-105.008,607.339 -105.284,607.569 -105.507,607.858C-105.729,608.147 -105.898,608.476 -106.012,608.846C-106.127,609.216 -106.184,609.599 -106.184,609.996C-106.184,610.375 -106.13,610.745 -106.021,611.106C-105.913,611.467 -105.751,611.788 -105.534,612.067C-105.317,612.347 -105.051,612.571 -104.735,612.74C-104.419,612.908 -104.054,612.992 -103.639,612.992C-103.284,612.992 -102.968,612.934 -102.691,612.816C-102.415,612.699 -102.177,612.538 -101.978,612.334C-101.78,612.129 -101.621,611.885 -101.5,611.603C-101.38,611.32 -101.296,611.01 -101.248,610.673L-100.85,610.673Z" style="fill:#000000;fill-rule:nonzero;stroke:rgb(128,128,128);stroke-width:0.02px;"/>
                <rect x="-98.486" y="606.703" width="0.406" height="6.497" style="fill:#000000;stroke:rgb(128,128,128);stroke-width:0.02px;"/>
                <path d="M-95.605,613.2L-95.605,606.703L-91.923,606.703L-91.923,607.064L-95.199,607.064L-95.199,609.78L-92.176,609.78L-92.176,610.123L-95.199,610.123L-95.199,612.839L-91.878,612.839L-91.878,613.2L-95.605,613.2Z" style="fill:#000000;fill-rule:nonzero;stroke:rgb(128,128,128);stroke-width:0.02px;"/>
                <path d="M-86.202,613.2L-86.202,608.586C-86.202,608.328 -86.226,608.095 -86.274,607.888C-86.322,607.681 -86.4,607.505 -86.509,607.361C-86.617,607.217 -86.761,607.106 -86.942,607.027C-87.122,606.949 -87.348,606.91 -87.619,606.91C-87.889,606.91 -88.115,606.949 -88.295,607.027C-88.476,607.106 -88.622,607.217 -88.733,607.361C-88.844,607.505 -88.923,607.681 -88.968,607.888C-89.013,608.095 -89.035,608.328 -89.035,608.586L-89.035,613.2L-89.441,613.2L-89.441,608.381C-89.441,607.786 -89.288,607.331 -88.981,607.019C-88.674,606.706 -88.22,606.549 -87.619,606.549C-87.017,606.549 -86.563,606.707 -86.256,607.023C-85.949,607.339 -85.796,607.792 -85.796,608.381L-85.796,613.2L-86.202,613.2Z" style="fill:#000000;fill-rule:nonzero;stroke:rgb(128,128,128);stroke-width:0.02px;"/>
                <path d="M-77.735,610.673C-77.783,611.064 -77.878,611.422 -78.02,611.747C-78.161,612.072 -78.349,612.355 -78.584,612.595C-78.818,612.836 -79.098,613.023 -79.423,613.155C-79.748,613.287 -80.112,613.353 -80.515,613.353C-80.99,613.353 -81.411,613.262 -81.778,613.078C-82.145,612.895 -82.455,612.648 -82.708,612.338C-82.96,612.028 -83.151,611.672 -83.281,611.269C-83.41,610.866 -83.475,610.442 -83.475,609.996C-83.475,609.533 -83.408,609.094 -83.276,608.679C-83.144,608.264 -82.948,607.898 -82.689,607.583C-82.431,607.267 -82.112,607.016 -81.733,606.829C-81.354,606.643 -80.915,606.549 -80.415,606.549C-80.109,606.549 -79.8,606.599 -79.49,606.698C-79.181,606.797 -78.899,606.94 -78.647,607.127C-78.394,607.313 -78.183,607.539 -78.015,607.804C-77.847,608.068 -77.753,608.366 -77.735,608.697L-78.132,608.697C-78.162,608.42 -78.25,608.171 -78.394,607.948C-78.538,607.725 -78.717,607.537 -78.931,607.384C-79.145,607.231 -79.381,607.113 -79.639,607.032C-79.898,606.951 -80.157,606.91 -80.415,606.91C-80.849,606.91 -81.231,606.996 -81.561,607.167C-81.892,607.339 -82.169,607.569 -82.392,607.858C-82.614,608.147 -82.783,608.476 -82.897,608.846C-83.011,609.216 -83.068,609.599 -83.068,609.996C-83.068,610.375 -83.014,610.745 -82.906,611.106C-82.798,611.467 -82.635,611.788 -82.419,612.067C-82.202,612.347 -81.936,612.571 -81.62,612.74C-81.304,612.908 -80.939,612.992 -80.524,612.992C-80.169,612.992 -79.853,612.934 -79.576,612.816C-79.299,612.699 -79.062,612.538 -78.863,612.334C-78.665,612.129 -78.505,611.885 -78.385,611.603C-78.265,611.32 -78.18,611.01 -78.132,610.673L-77.735,610.673Z" style="fill:#000000;fill-rule:nonzero;stroke:rgb(128,128,128);stroke-width:0.02px;"/>
                <path d="M-75.371,613.2L-75.371,606.703L-71.689,606.703L-71.689,607.064L-74.965,607.064L-74.965,609.78L-71.942,609.78L-71.942,610.123L-74.965,610.123L-74.965,612.839L-71.644,612.839L-71.644,613.2L-75.371,613.2Z" style="fill:#000000;fill-rule:nonzero;stroke:rgb(128,128,128);stroke-width:0.02px;"/>
                <path d="M-60.981,611.546C-60.981,611.865 -61.042,612.14 -61.166,612.368C-61.289,612.597 -61.455,612.784 -61.662,612.929C-61.87,613.073 -62.106,613.18 -62.37,613.249C-62.635,613.319 -62.912,613.353 -63.201,613.353C-63.544,613.353 -63.877,613.312 -64.202,613.23C-64.527,613.148 -64.816,613.016 -65.069,612.833C-65.321,612.651 -65.524,612.413 -65.678,612.122C-65.831,611.83 -65.905,611.473 -65.899,611.052L-65.493,611.052C-65.493,611.413 -65.433,611.719 -65.312,611.968C-65.192,612.218 -65.027,612.421 -64.816,612.577C-64.605,612.734 -64.359,612.848 -64.076,612.92C-63.793,612.992 -63.492,613.029 -63.174,613.029C-62.945,613.029 -62.722,613.001 -62.506,612.947C-62.289,612.893 -62.098,612.807 -61.933,612.69C-61.767,612.572 -61.635,612.422 -61.536,612.238C-61.436,612.054 -61.387,611.833 -61.387,611.574C-61.387,611.278 -61.452,611.042 -61.581,610.864C-61.71,610.687 -61.877,610.546 -62.082,610.444C-62.286,610.342 -62.516,610.26 -62.772,610.2C-63.028,610.14 -63.282,610.08 -63.535,610.019C-63.793,609.959 -64.052,609.894 -64.311,609.825C-64.569,609.756 -64.801,609.659 -65.005,609.536C-65.21,609.412 -65.377,609.253 -65.506,609.057C-65.636,608.861 -65.7,608.604 -65.7,608.284C-65.7,607.959 -65.633,607.685 -65.497,607.462C-65.362,607.239 -65.187,607.06 -64.974,606.924C-64.76,606.789 -64.52,606.692 -64.252,606.635C-63.984,606.578 -63.715,606.549 -63.444,606.549C-63.125,606.549 -62.828,606.584 -62.551,606.655C-62.274,606.725 -62.032,606.838 -61.825,606.993C-61.617,607.148 -61.452,607.352 -61.328,607.605C-61.205,607.858 -61.134,608.168 -61.116,608.535L-61.504,608.535C-61.516,608.228 -61.573,607.969 -61.676,607.759C-61.778,607.548 -61.915,607.378 -62.086,607.249C-62.258,607.119 -62.459,607.025 -62.691,606.964C-62.922,606.904 -63.174,606.874 -63.444,606.874C-63.655,606.874 -63.868,606.895 -64.085,606.937C-64.302,606.98 -64.5,607.053 -64.681,607.159C-64.861,607.264 -65.008,607.404 -65.123,607.579C-65.237,607.754 -65.294,607.974 -65.294,608.239C-65.294,608.51 -65.231,608.727 -65.105,608.889C-64.979,609.052 -64.814,609.183 -64.61,609.282C-64.406,609.382 -64.175,609.463 -63.916,609.526C-63.658,609.59 -63.394,609.654 -63.124,609.721C-62.836,609.793 -62.561,609.867 -62.3,609.942C-62.039,610.017 -61.811,610.118 -61.616,610.245C-61.421,610.371 -61.266,610.537 -61.152,610.742C-61.038,610.947 -60.981,611.215 -60.981,611.546Z" style="fill:#000000;fill-rule:nonzero;stroke:rgb(128,128,128);stroke-width:0.02px;"/>
                <path d="M-55.386,613.2L-55.386,610.105L-58.354,610.105L-58.354,613.2L-58.761,613.2L-58.761,606.703L-58.354,606.703L-58.354,609.744L-55.395,609.744L-55.395,606.703L-54.979,606.703L-54.979,613.2L-55.386,613.2Z" style="fill:#000000;fill-rule:nonzero;stroke:rgb(128,128,128);stroke-width:0.02px;"/>
                <path d="M-49.222,608.584C-49.222,608.326 -49.246,608.093 -49.294,607.886C-49.342,607.679 -49.42,607.504 -49.529,607.36C-49.637,607.216 -49.781,607.105 -49.962,607.027C-50.142,606.949 -50.368,606.91 -50.639,606.91C-50.909,606.91 -51.135,606.949 -51.315,607.027C-51.496,607.105 -51.642,607.216 -51.753,607.36C-51.864,607.504 -51.943,607.679 -51.988,607.886C-52.033,608.093 -52.055,608.326 -52.055,608.584L-52.055,609.78L-49.222,609.78L-49.222,608.584ZM-49.222,613.2L-49.222,610.123L-52.055,610.123L-52.055,613.2L-52.461,613.2L-52.461,608.381C-52.461,607.786 -52.308,607.331 -52.001,607.019C-51.694,606.706 -51.24,606.549 -50.639,606.549C-50.037,606.549 -49.583,606.707 -49.276,607.023C-48.969,607.339 -48.816,607.792 -48.816,608.381L-48.816,613.2L-49.222,613.2Z" style="fill:#000000;fill-rule:nonzero;stroke:rgb(128,128,128);stroke-width:0.02px;"/>
                <path d="M-42.93,608.521C-42.93,608.041 -43.071,607.678 -43.354,607.433C-43.637,607.187 -44.052,607.064 -44.6,607.064L-45.935,607.064L-45.935,609.978L-44.618,609.978C-44.383,609.978 -44.162,609.947 -43.954,609.884C-43.747,609.821 -43.568,609.728 -43.417,609.605C-43.267,609.482 -43.148,609.331 -43.061,609.151C-42.974,608.971 -42.93,608.761 -42.93,608.521ZM-42.524,608.517C-42.524,608.817 -42.577,609.081 -42.682,609.306C-42.788,609.532 -42.934,609.721 -43.121,609.875C-43.308,610.028 -43.531,610.144 -43.791,610.222C-44.05,610.3 -44.334,610.339 -44.641,610.339L-45.935,610.339L-45.935,613.2L-46.341,613.2L-46.341,606.703L-44.541,606.703C-43.89,606.703 -43.391,606.862 -43.044,607.181C-42.697,607.5 -42.524,607.945 -42.524,608.517Z" style="fill:#000000;fill-rule:nonzero;stroke:rgb(128,128,128);stroke-width:0.02px;"/>
                <path d="M-40.212,613.2L-40.212,606.703L-36.53,606.703L-36.53,607.064L-39.806,607.064L-39.806,609.78L-36.783,609.78L-36.783,610.123L-39.806,610.123L-39.806,612.839L-36.485,612.839L-36.485,613.2L-40.212,613.2Z" style="fill:#000000;fill-rule:nonzero;stroke:rgb(128,128,128);stroke-width:0.02px;"/>
                <path d="M-30.556,609.951C-30.556,609.536 -30.602,609.153 -30.696,608.801C-30.789,608.449 -30.935,608.145 -31.133,607.889C-31.332,607.634 -31.589,607.432 -31.905,607.285C-32.221,607.137 -32.598,607.064 -33.037,607.064L-33.642,607.064L-33.642,612.839L-33.182,612.839C-32.749,612.839 -32.37,612.765 -32.045,612.618C-31.72,612.471 -31.446,612.268 -31.224,612.009C-31.001,611.75 -30.834,611.445 -30.723,611.093C-30.611,610.741 -30.556,610.36 -30.556,609.951ZM-30.15,609.951C-30.15,610.433 -30.216,610.872 -30.348,611.269C-30.481,611.666 -30.676,612.007 -30.935,612.293C-31.194,612.579 -31.514,612.801 -31.896,612.961C-32.278,613.12 -32.716,613.2 -33.209,613.2L-34.048,613.2L-34.048,606.703L-32.92,606.703C-32.433,606.703 -32.015,606.788 -31.666,606.96C-31.317,607.131 -31.03,607.363 -30.804,607.655C-30.578,607.947 -30.413,608.289 -30.308,608.683C-30.202,609.078 -30.15,609.5 -30.15,609.951Z" style="fill:#000000;fill-rule:nonzero;stroke:rgb(128,128,128);stroke-width:0.02px;"/>
            </g>
            <g transform="matrix(1.04821,2.1989,-2.22607,1.07746,4585.71,-2319.57)">
                <path d="M1160.37,1674.32C1173.59,1681.6 1188.43,1685.42 1203.52,1685.42C1252.86,1685.42 1292.92,1645.36 1292.92,1596.02C1292.92,1588.01 1291.85,1580.04 1289.72,1572.32L1285.71,1573.43C1287.73,1580.79 1288.76,1588.39 1288.76,1596.02C1288.76,1643.06 1250.56,1681.26 1203.52,1681.26C1189.13,1681.26 1174.98,1677.62 1162.38,1670.67L1160.37,1674.32Z" style="fill:#000000;"/>
            </g>
        </g>
    </g>
</svg>
